<svg xmlns="http://www.w3.org/2000/svg" xmlns:xlink="http://www.w3.org/1999/xlink" width="40" zoomAndPan="magnify" viewBox="0 0 30 30.000001" height="40" preserveAspectRatio="xMidYMid meet" version="1.0"><defs><clipPath id="7b7eeb3245"><path d="M 0.484375 0 L 29.515625 0 L 29.515625 29.03125 L 0.484375 29.03125 Z M 0.484375 0 " clip-rule="nonzero"/></clipPath><clipPath id="9d5bb25f65"><path d="M 7 6.167969 L 19 6.167969 L 19 18 L 7 18 Z M 7 6.167969 " clip-rule="nonzero"/></clipPath><clipPath id="901b8b3992"><path d="M 15 15 L 21.460938 15 L 21.460938 20.683594 L 15 20.683594 Z M 15 15 " clip-rule="nonzero"/></clipPath></defs><g clip-path="url(#7b7eeb3245)"><path fill="#ffffff" d="M 0.484375 0 L 29.515625 0 L 29.515625 29.03125 L 0.484375 29.03125 Z M 0.484375 0 " fill-opacity="1" fill-rule="nonzero"/><path fill="#ffffff" d="M 0.484375 0 L 29.515625 0 L 29.515625 29.03125 L 0.484375 29.03125 Z M 0.484375 0 " fill-opacity="1" fill-rule="nonzero"/></g><g clip-path="url(#9d5bb25f65)"><path fill="#004aad" d="M 13.054688 17.988281 C 12.824219 17.988281 12.59375 17.972656 12.363281 17.945312 C 12.132812 17.917969 11.90625 17.875 11.683594 17.820312 C 11.457031 17.761719 11.238281 17.691406 11.023438 17.609375 C 10.808594 17.527344 10.597656 17.429688 10.394531 17.320312 C 10.1875 17.210938 9.992188 17.089844 9.804688 16.957031 C 9.613281 16.824219 9.433594 16.679688 9.261719 16.527344 C 9.089844 16.371094 8.929688 16.203125 8.777344 16.03125 C 8.625 15.855469 8.488281 15.671875 8.359375 15.480469 C 8.230469 15.285156 8.113281 15.085938 8.007812 14.878906 C 7.90625 14.671875 7.816406 14.460938 7.738281 14.242188 C 7.660156 14.027344 7.59375 13.804688 7.542969 13.578125 C 7.492188 13.351562 7.457031 13.125 7.433594 12.894531 C 7.410156 12.664062 7.402344 12.433594 7.40625 12.203125 C 7.414062 11.96875 7.433594 11.742188 7.46875 11.511719 C 7.5 11.28125 7.550781 11.058594 7.609375 10.832031 C 7.671875 10.609375 7.746094 10.394531 7.835938 10.179688 C 7.925781 9.964844 8.027344 9.757812 8.140625 9.554688 C 8.253906 9.355469 8.378906 9.160156 8.519531 8.976562 C 8.65625 8.789062 8.804688 8.613281 8.964844 8.445312 C 9.125 8.277344 9.292969 8.121094 9.472656 7.972656 C 9.652344 7.828125 9.839844 7.691406 10.035156 7.570312 C 10.230469 7.445312 10.429688 7.332031 10.640625 7.234375 C 10.851562 7.136719 11.0625 7.050781 11.285156 6.976562 C 11.503906 6.90625 11.726562 6.847656 11.953125 6.800781 C 12.179688 6.757812 12.410156 6.726562 12.640625 6.707031 C 12.871094 6.691406 13.101562 6.6875 13.332031 6.699219 C 13.5625 6.710938 13.792969 6.738281 14.019531 6.777344 C 14.25 6.816406 14.472656 6.871094 14.695312 6.9375 C 14.917969 7.003906 15.132812 7.085938 15.34375 7.179688 C 15.554688 7.273438 15.761719 7.378906 15.960938 7.5 C 16.15625 7.617188 16.347656 7.75 16.53125 7.890625 C 16.710938 8.035156 16.886719 8.1875 17.050781 8.351562 C 17.445312 8.746094 17.773438 9.1875 18.035156 9.679688 C 18.300781 10.171875 18.488281 10.695312 18.59375 11.242188 C 18.703125 11.789062 18.730469 12.339844 18.675781 12.898438 C 18.621094 13.453125 18.488281 13.988281 18.273438 14.503906 C 18.0625 15.019531 17.777344 15.492188 17.421875 15.925781 C 17.066406 16.355469 16.660156 16.726562 16.195312 17.039062 C 15.730469 17.347656 15.230469 17.582031 14.695312 17.746094 C 14.160156 17.90625 13.613281 17.988281 13.054688 17.988281 Z M 13.054688 7.9375 C 12.71875 7.9375 12.382812 7.976562 12.054688 8.050781 C 11.726562 8.125 11.410156 8.238281 11.105469 8.386719 C 10.800781 8.539062 10.519531 8.71875 10.257812 8.933594 C 9.996094 9.148438 9.761719 9.386719 9.554688 9.65625 C 9.347656 9.921875 9.175781 10.210938 9.035156 10.519531 C 8.894531 10.828125 8.792969 11.144531 8.726562 11.476562 C 8.660156 11.808594 8.632812 12.144531 8.640625 12.480469 C 8.652344 12.820312 8.703125 13.152344 8.789062 13.480469 C 8.875 13.804688 9 14.117188 9.15625 14.417969 C 9.316406 14.714844 9.507812 14.992188 9.730469 15.246094 C 9.953125 15.5 10.203125 15.726562 10.476562 15.921875 C 10.75 16.121094 11.042969 16.285156 11.355469 16.414062 C 11.667969 16.542969 11.992188 16.636719 12.324219 16.691406 C 12.660156 16.746094 12.996094 16.761719 13.332031 16.738281 C 13.667969 16.71875 14 16.65625 14.324219 16.558594 C 14.648438 16.460938 14.957031 16.328125 15.25 16.160156 C 15.542969 15.992188 15.8125 15.789062 16.058594 15.558594 C 16.304688 15.328125 16.523438 15.070312 16.710938 14.789062 C 16.898438 14.511719 17.050781 14.210938 17.167969 13.894531 C 17.289062 13.578125 17.371094 13.253906 17.414062 12.917969 C 17.457031 12.582031 17.464844 12.246094 17.429688 11.910156 C 17.398438 11.574219 17.324219 11.246094 17.21875 10.925781 C 17.109375 10.605469 16.964844 10.300781 16.785156 10.015625 C 16.605469 9.726562 16.398438 9.464844 16.160156 9.226562 C 15.300781 8.367188 14.265625 7.9375 13.054688 7.9375 Z M 13.054688 7.9375 " fill-opacity="1" fill-rule="nonzero"/></g><g clip-path="url(#901b8b3992)"><path fill="#004aad" d="M 21.0625 20.96875 C 20.890625 20.96875 20.742188 20.90625 20.625 20.785156 L 16.171875 16.335938 C 16.050781 16.214844 15.988281 16.070312 15.988281 15.898438 C 15.988281 15.726562 16.050781 15.578125 16.171875 15.457031 C 16.292969 15.335938 16.4375 15.277344 16.609375 15.277344 C 16.78125 15.277344 16.925781 15.335938 17.050781 15.457031 L 21.5 19.910156 C 21.691406 20.105469 21.738281 20.332031 21.632812 20.585938 C 21.527344 20.839844 21.335938 20.96875 21.0625 20.96875 Z M 21.0625 20.96875 " fill-opacity="1" fill-rule="nonzero"/></g></svg>