<svg xmlns="http://www.w3.org/2000/svg" xmlns:xlink="http://www.w3.org/1999/xlink" width="472" zoomAndPan="magnify" viewBox="0 0 354 211.499994" height="282" preserveAspectRatio="xMidYMid meet" version="1.0"><defs><clipPath id="b1cb3eef98"><path d="M 184 111 L 226 111 L 226 152.582031 L 184 152.582031 Z M 184 111 " clip-rule="nonzero"/></clipPath></defs><path fill="#004aad" d="M 162.886719 130.765625 C 162.046875 130.765625 161.207031 130.738281 160.371094 130.6875 C 159.53125 130.636719 158.695312 130.558594 157.859375 130.457031 C 157.027344 130.355469 156.195312 130.226562 155.371094 130.074219 C 154.542969 129.917969 153.722656 129.742188 152.910156 129.539062 C 152.09375 129.332031 151.285156 129.105469 150.484375 128.851562 C 149.683594 128.597656 148.890625 128.320312 148.105469 128.019531 C 147.320312 127.714844 146.546875 127.390625 145.785156 127.039062 C 145.019531 126.691406 144.265625 126.316406 143.527344 125.921875 C 142.785156 125.527344 142.054688 125.109375 141.339844 124.667969 C 140.625 124.226562 139.925781 123.765625 139.238281 123.28125 C 138.550781 122.796875 137.878906 122.292969 137.222656 121.769531 C 136.566406 121.242188 135.925781 120.699219 135.304688 120.136719 C 134.679688 119.570312 134.078125 118.988281 133.488281 118.386719 C 132.902344 117.785156 132.335938 117.167969 131.785156 116.53125 C 131.238281 115.894531 130.707031 115.242188 130.199219 114.574219 C 129.691406 113.90625 129.203125 113.222656 128.734375 112.523438 C 128.269531 111.824219 127.824219 111.113281 127.398438 110.386719 C 126.976562 109.660156 126.574219 108.921875 126.199219 108.171875 C 125.820312 107.421875 125.464844 106.660156 125.132812 105.886719 C 124.804688 105.117188 124.496094 104.332031 124.210938 103.542969 C 123.929688 102.75 123.671875 101.953125 123.4375 101.144531 C 123.203125 100.339844 122.992188 99.523438 122.808594 98.707031 C 122.625 97.886719 122.464844 97.0625 122.332031 96.230469 C 122.199219 95.402344 122.089844 94.570312 122.007812 93.730469 C 121.925781 92.894531 121.871094 92.058594 121.839844 91.21875 C 121.808594 90.378906 121.804688 89.539062 121.824219 88.699219 C 121.84375 87.859375 121.890625 87.019531 121.960938 86.183594 C 122.035156 85.347656 122.132812 84.511719 122.257812 83.679688 C 122.378906 82.847656 122.527344 82.023438 122.703125 81.199219 C 122.875 80.378906 123.074219 79.5625 123.300781 78.753906 C 123.523438 77.945312 123.773438 77.140625 124.046875 76.347656 C 124.320312 75.550781 124.617188 74.765625 124.9375 73.992188 C 125.261719 73.214844 125.605469 72.449219 125.972656 71.695312 C 126.34375 70.9375 126.734375 70.195312 127.148438 69.464844 C 127.5625 68.734375 128 68.015625 128.457031 67.3125 C 128.914062 66.605469 129.394531 65.917969 129.894531 65.242188 C 130.398438 64.566406 130.917969 63.910156 131.457031 63.265625 C 132 62.625 132.558594 61.996094 133.140625 61.390625 C 133.71875 60.78125 134.316406 60.191406 134.933594 59.621094 C 135.546875 59.046875 136.179688 58.496094 136.832031 57.960938 C 137.480469 57.429688 138.144531 56.917969 138.828125 56.425781 C 139.507812 55.933594 140.203125 55.460938 140.914062 55.011719 C 141.625 54.5625 142.347656 54.136719 143.082031 53.730469 C 143.820312 53.328125 144.566406 52.945312 145.328125 52.585938 C 146.085938 52.226562 146.855469 51.890625 147.636719 51.578125 C 148.417969 51.269531 149.207031 50.980469 150.003906 50.71875 C 150.800781 50.453125 151.609375 50.214844 152.421875 50 C 153.234375 49.789062 154.050781 49.597656 154.875 49.4375 C 155.699219 49.273438 156.527344 49.132812 157.359375 49.019531 C 158.195312 48.910156 159.027344 48.820312 159.867188 48.761719 C 160.703125 48.699219 161.542969 48.664062 162.382812 48.652344 C 163.222656 48.644531 164.0625 48.660156 164.902344 48.699219 C 165.742188 48.742188 166.578125 48.808594 167.414062 48.902344 C 168.25 48.996094 169.082031 49.113281 169.910156 49.257812 C 170.738281 49.402344 171.558594 49.570312 172.378906 49.765625 C 173.195312 49.960938 174.003906 50.179688 174.808594 50.425781 C 175.613281 50.667969 176.410156 50.9375 177.195312 51.230469 C 177.984375 51.523438 178.761719 51.839844 179.527344 52.183594 C 180.296875 52.523438 181.054688 52.886719 181.800781 53.273438 C 182.546875 53.664062 183.277344 54.074219 184 54.503906 C 184.71875 54.9375 185.425781 55.390625 186.117188 55.867188 C 186.8125 56.34375 187.488281 56.839844 188.148438 57.355469 C 188.8125 57.875 189.457031 58.410156 190.085938 58.96875 C 190.714844 59.527344 191.328125 60.101562 191.921875 60.695312 C 193.347656 62.125 194.664062 63.648438 195.871094 65.269531 C 197.074219 66.890625 198.152344 68.589844 199.105469 70.371094 C 200.054688 72.152344 200.871094 73.992188 201.554688 75.894531 C 202.234375 77.792969 202.773438 79.734375 203.167969 81.714844 C 203.5625 83.695312 203.808594 85.691406 203.90625 87.710938 C 204.007812 89.726562 203.957031 91.738281 203.757812 93.75 C 203.5625 95.757812 203.21875 97.742188 202.726562 99.703125 C 202.234375 101.660156 201.605469 103.570312 200.832031 105.4375 C 200.058594 107.304688 199.152344 109.101562 198.113281 110.832031 C 197.074219 112.566406 195.917969 114.210938 194.632812 115.769531 C 193.351562 117.332031 191.964844 118.789062 190.46875 120.144531 C 188.972656 121.5 187.382812 122.738281 185.703125 123.859375 C 184.023438 124.980469 182.269531 125.972656 180.445312 126.835938 C 178.621094 127.695312 176.742188 128.421875 174.808594 129.003906 C 172.875 129.589844 170.910156 130.03125 168.914062 130.324219 C 166.914062 130.617188 164.90625 130.765625 162.886719 130.765625 Z M 162.886719 57.695312 C 162.277344 57.695312 161.664062 57.710938 161.054688 57.746094 C 160.441406 57.777344 159.832031 57.828125 159.222656 57.898438 C 158.617188 57.964844 158.011719 58.050781 157.40625 58.15625 C 156.804688 58.257812 156.203125 58.378906 155.609375 58.519531 C 155.011719 58.65625 154.417969 58.808594 153.832031 58.980469 C 153.246094 59.152344 152.664062 59.339844 152.085938 59.546875 C 151.507812 59.75 150.9375 59.972656 150.375 60.210938 C 149.8125 60.449219 149.253906 60.703125 148.703125 60.972656 C 148.15625 61.242188 147.613281 61.527344 147.082031 61.828125 C 146.546875 62.128906 146.023438 62.441406 145.507812 62.773438 C 144.992188 63.105469 144.488281 63.449219 143.992188 63.808594 C 143.5 64.167969 143.015625 64.542969 142.539062 64.929688 C 142.066406 65.316406 141.605469 65.71875 141.152344 66.132812 C 140.703125 66.546875 140.261719 66.972656 139.835938 67.410156 C 139.410156 67.851562 138.996094 68.300781 138.597656 68.765625 C 138.195312 69.226562 137.808594 69.699219 137.4375 70.183594 C 137.0625 70.671875 136.703125 71.164062 136.359375 71.671875 C 136.011719 72.175781 135.683594 72.691406 135.367188 73.214844 C 135.050781 73.738281 134.75 74.273438 134.464844 74.816406 C 134.179688 75.355469 133.914062 75.90625 133.660156 76.460938 C 133.40625 77.019531 133.167969 77.582031 132.945312 78.15625 C 132.726562 78.726562 132.519531 79.300781 132.332031 79.882812 C 132.144531 80.464844 131.972656 81.054688 131.820312 81.644531 C 131.664062 82.238281 131.527344 82.835938 131.40625 83.433594 C 131.285156 84.035156 131.183594 84.636719 131.097656 85.242188 C 131.011719 85.847656 130.945312 86.457031 130.894531 87.066406 C 130.84375 87.675781 130.808594 88.289062 130.792969 88.898438 C 130.777344 89.511719 130.777344 90.125 130.796875 90.734375 C 130.816406 91.347656 130.855469 91.957031 130.910156 92.566406 C 130.960938 93.175781 131.035156 93.785156 131.125 94.390625 C 131.210938 94.996094 131.320312 95.597656 131.441406 96.195312 C 131.566406 96.796875 131.707031 97.390625 131.863281 97.984375 C 132.023438 98.574219 132.195312 99.160156 132.386719 99.742188 C 132.578125 100.324219 132.785156 100.898438 133.011719 101.46875 C 133.234375 102.039062 133.476562 102.601562 133.730469 103.15625 C 133.988281 103.710938 134.261719 104.257812 134.550781 104.800781 C 134.835938 105.339844 135.140625 105.871094 135.457031 106.394531 C 135.777344 106.917969 136.109375 107.429688 136.457031 107.933594 C 136.804688 108.4375 137.167969 108.929688 137.542969 109.414062 C 137.917969 109.894531 138.308594 110.367188 138.710938 110.828125 C 139.117188 111.289062 139.53125 111.738281 139.960938 112.175781 C 140.390625 112.609375 140.828125 113.035156 141.28125 113.445312 C 141.734375 113.855469 142.199219 114.253906 142.675781 114.640625 C 143.152344 115.023438 143.640625 115.394531 144.136719 115.753906 C 144.632812 116.109375 145.140625 116.453125 145.65625 116.78125 C 146.175781 117.109375 146.699219 117.421875 147.234375 117.71875 C 147.769531 118.015625 148.3125 118.296875 148.863281 118.5625 C 149.414062 118.832031 149.972656 119.082031 150.539062 119.316406 C 151.101562 119.550781 151.675781 119.769531 152.253906 119.972656 C 152.828125 120.171875 153.414062 120.359375 154 120.527344 C 154.589844 120.695312 155.183594 120.847656 155.78125 120.980469 C 156.375 121.113281 156.976562 121.230469 157.582031 121.332031 C 158.183594 121.433594 158.789062 121.515625 159.398438 121.582031 C 160.007812 121.644531 160.617188 121.691406 161.230469 121.722656 C 161.839844 121.753906 162.453125 121.765625 163.0625 121.761719 C 163.675781 121.757812 164.289062 121.734375 164.898438 121.695312 C 165.507812 121.65625 166.117188 121.597656 166.726562 121.523438 C 167.332031 121.449219 167.9375 121.355469 168.539062 121.246094 C 169.140625 121.136719 169.742188 121.011719 170.335938 120.867188 C 170.929688 120.722656 171.519531 120.5625 172.105469 120.386719 C 172.691406 120.207031 173.273438 120.015625 173.847656 119.804688 C 174.421875 119.59375 174.988281 119.367188 175.550781 119.121094 C 176.113281 118.878906 176.667969 118.621094 177.214844 118.34375 C 177.761719 118.070312 178.296875 117.78125 178.828125 117.472656 C 179.359375 117.167969 179.878906 116.847656 180.390625 116.511719 C 180.902344 116.175781 181.40625 115.824219 181.894531 115.460938 C 182.386719 115.097656 182.867188 114.71875 183.339844 114.324219 C 183.808594 113.933594 184.265625 113.527344 184.714844 113.109375 C 185.160156 112.691406 185.59375 112.261719 186.015625 111.816406 C 186.4375 111.375 186.847656 110.917969 187.242188 110.453125 C 187.640625 109.984375 188.019531 109.507812 188.390625 109.019531 C 188.757812 108.53125 189.113281 108.03125 189.453125 107.523438 C 189.792969 107.015625 190.117188 106.496094 190.429688 105.96875 C 190.738281 105.441406 191.035156 104.90625 191.3125 104.359375 C 191.59375 103.816406 191.855469 103.265625 192.105469 102.703125 C 192.351562 102.144531 192.582031 101.578125 192.800781 101.003906 C 193.015625 100.433594 193.214844 99.855469 193.394531 99.269531 C 193.578125 98.6875 193.742188 98.097656 193.890625 97.503906 C 194.039062 96.910156 194.171875 96.3125 194.285156 95.710938 C 194.398438 95.109375 194.496094 94.503906 194.578125 93.898438 C 194.65625 93.292969 194.71875 92.683594 194.761719 92.074219 C 194.808594 91.460938 194.835938 90.851562 194.84375 90.238281 C 194.855469 89.628906 194.847656 89.015625 194.820312 88.402344 C 194.796875 87.792969 194.753906 87.183594 194.695312 86.574219 C 194.632812 85.964844 194.554688 85.359375 194.460938 84.753906 C 194.367188 84.148438 194.253906 83.546875 194.125 82.949219 C 193.992188 82.351562 193.847656 81.757812 193.683594 81.167969 C 193.519531 80.578125 193.339844 79.992188 193.144531 79.414062 C 192.945312 78.832031 192.730469 78.261719 192.503906 77.695312 C 192.273438 77.125 192.027344 76.566406 191.765625 76.011719 C 191.503906 75.460938 191.222656 74.914062 190.929688 74.378906 C 190.636719 73.839844 190.328125 73.3125 190.003906 72.792969 C 189.683594 72.273438 189.34375 71.761719 188.992188 71.261719 C 188.636719 70.761719 188.269531 70.273438 187.890625 69.792969 C 187.507812 69.316406 187.117188 68.847656 186.707031 68.390625 C 186.300781 67.933594 185.878906 67.492188 185.445312 67.058594 C 183.964844 65.574219 182.355469 64.253906 180.613281 63.085938 C 178.871094 61.921875 177.03125 60.9375 175.097656 60.136719 C 173.160156 59.332031 171.167969 58.726562 169.113281 58.316406 C 167.058594 57.90625 164.984375 57.699219 162.886719 57.695312 Z M 162.886719 57.695312 " fill-opacity="1" fill-rule="nonzero"/><g clip-path="url(#b1cb3eef98)"><path fill="#004aad" d="M 221.089844 152.441406 C 219.84375 152.4375 218.785156 151.992188 217.910156 151.113281 L 185.535156 118.761719 C 185.328125 118.554688 185.140625 118.324219 184.976562 118.078125 C 184.8125 117.832031 184.671875 117.570312 184.558594 117.296875 C 184.445312 117.023438 184.359375 116.742188 184.300781 116.453125 C 184.242188 116.160156 184.214844 115.867188 184.214844 115.570312 C 184.214844 115.273438 184.242188 114.980469 184.300781 114.691406 C 184.359375 114.398438 184.445312 114.117188 184.558594 113.84375 C 184.671875 113.570312 184.8125 113.308594 184.976562 113.0625 C 185.140625 112.816406 185.328125 112.589844 185.535156 112.378906 C 185.746094 112.167969 185.972656 111.980469 186.222656 111.816406 C 186.46875 111.652344 186.726562 111.511719 187 111.398438 C 187.273438 111.285156 187.558594 111.199219 187.847656 111.144531 C 188.140625 111.085938 188.433594 111.054688 188.730469 111.054688 C 189.023438 111.054688 189.320312 111.085938 189.609375 111.144531 C 189.898438 111.199219 190.183594 111.285156 190.457031 111.398438 C 190.730469 111.511719 190.992188 111.652344 191.238281 111.816406 C 191.484375 111.980469 191.710938 112.167969 191.921875 112.378906 L 224.269531 144.75 C 224.582031 145.066406 224.84375 145.417969 225.054688 145.8125 C 225.261719 146.207031 225.410156 146.621094 225.496094 147.054688 C 225.582031 147.492188 225.605469 147.933594 225.558594 148.375 C 225.515625 148.816406 225.410156 149.242188 225.238281 149.65625 C 225.070312 150.066406 224.84375 150.445312 224.5625 150.789062 C 224.28125 151.132812 223.957031 151.429688 223.585938 151.675781 C 223.214844 151.925781 222.820312 152.113281 222.394531 152.246094 C 221.96875 152.375 221.535156 152.441406 221.089844 152.441406 Z M 221.089844 152.441406 " fill-opacity="1" fill-rule="nonzero"/></g></svg>